<svg width="24" height="24" viewBox="0 0 24 24" fill="none" xmlns="http://www.w3.org/2000/svg">
  <path d="M12 2C12 2 8 6 8 10C8 12.21 9.79 14 12 14C14.21 14 16 12.21 16 10C16 6 12 2 12 2Z" fill="#E91E63" stroke="#C2185B" stroke-width="1"/>
  <path d="M12 14C12 14 6 16 6 19C6 20.66 7.34 22 9 22C10.66 22 12 20.66 12 19V14Z" fill="#4CAF50" stroke="#388E3C" stroke-width="1"/>
  <path d="M12 14C12 14 18 16 18 19C18 20.66 16.66 22 15 22C13.34 22 12 20.66 12 19V14Z" fill="#4CAF50" stroke="#388E3C" stroke-width="1"/>
  <path d="M12 14C12 14 4 12 4 16C4 17.66 5.34 19 7 19C8.66 19 10 17.66 10 16C10 15 12 14 12 14Z" fill="#66BB6A" stroke="#4CAF50" stroke-width="1"/>
  <path d="M12 14C12 14 20 12 20 16C20 17.66 18.66 19 17 19C15.34 19 14 17.66 14 16C14 15 12 14 12 14Z" fill="#66BB6A" stroke="#4CAF50" stroke-width="1"/>
  <circle cx="12" cy="14" r="2" fill="#FFC107" stroke="#FF8F00" stroke-width="1"/>
</svg>